PathFileType	4	(X/Y/Z)	C:\Git\research_data\torsion_deformities_healthy_kinematics\simulations\TD07\pre\static_01\markers.trc
DataRate	CameraRate	NumFrames	NumMarkers	Units	OrigDataRate	OrigDataStartFrame	OrigNumFrames
200.000000	200.000000	6	34	mm	200.000000	15	120
Frame#	Time	C7			T10			CLAV			STRN			RBAK			LASI			RASI			SACR			RT1			RT2			RT3			RKNE			RS1			RS2			RS3			RANK			RHEE			RTOE			RM5D			LT1			LT2			LT3			LKNE			LS1			LS2			LS3			LANK			LHEE			LTOE			LM5D			RANKM			LANKM			RKNEM			LKNEM			
		X1	Y1	Z1	X2	Y2	Z2	X3	Y3	Z3	X4	Y4	Z4	X5	Y5	Z5	X6	Y6	Z6	X7	Y7	Z7	X8	Y8	Z8	X9	Y9	Z9	X10	Y10	Z10	X11	Y11	Z11	X12	Y12	Z12	X13	Y13	Z13	X14	Y14	Z14	X15	Y15	Z15	X16	Y16	Z16	X17	Y17	Z17	X18	Y18	Z18	X19	Y19	Z19	X20	Y20	Z20	X21	Y21	Z21	X22	Y22	Z22	X23	Y23	Z23	X24	Y24	Z24	X25	Y25	Z25	X26	Y26	Z26	X27	Y27	Z27	X28	Y28	Z28	X29	Y29	Z29	X30	Y30	Z30	X31	Y31	Z31	X32	Y32	Z32	X33	Y33	Z33	X34	Y34	Z34	

16	0.075	655.1931152343749	1226.522583007812	349.7071228027343	661.7802734374999	1004.424865722656	344.9402160644531	669.7633666992186	1199.893676757812	223.102554321289	670.4099731445311	1067.5654296875	155.0498657226562	755.8887939453124	1094.095825195312	361.0522155761718	547.3399658203125	796.7156982421875	205.4689178466797	803.20703125	833.3570556640625	198.238540649414	672.3638916015625	853.58447265625	355.8092346191406	865.6329956054688	607.1456298828125	309.3140258789062	863.6021728515625	546.6571044921875	336.7482604980468	875.5604248046875	545.6131591796875	288.2196044921874	881.7606811523438	442.1693725585938	298.8241271972656	915.4085693359375	350.4916687011719	350.8798828124999	921.86767578125	287.5725097656251	376.8037109374999	937.871826171875	292.8119506835938	326.4783630371093	962.1574096679688	87.26376342773443	322.0044555664062	922.8982543945312	45.92904663085943	358.7498779296874	978.9638671875	47.56652069091803	167.4491577148437	1003.175048828125	34.4020957946778	257.6446838378906	482.7135620117187	615.2171020507812	253.5691223144531	473.3463745117187	559.326904296875	289.2705993652343	482.4098205566406	550.7333374023438	238.6793365478515	453.1012573242188	421.8380737304688	304.0732727050781	401.0733947753906	310.1757507324219	318.3369445800781	386.1014404296875	255.3197937011719	353.3092956542969	381.4506225585938	248.7117462158203	302.4364929199219	348.68798828125	71.27481842041018	335.0174865722656	387.0658264160156	43.37796783447268	357.7211303710938	297.9314270019531	42.72402954101565	178.6688232421875	286.2117309570312	29.79074287414553	273.3158874511719	888.29443359375	74.95623779296881	278.1858215332031	407.2927551269531	67.43362426757815	271.8598937988281	793.0011596679688	404.8196716308594	267.2787475585937	542.5137329101562	382.8585510253907	260.7994995117187	
17	0.08	655.1488647460936	1226.569458007812	349.6789550781249	661.8055419921874	1004.43701171875	344.9540405273437	669.7296142578124	1199.904296875	223.0895385742187	670.4024658203124	1067.575439453125	155.0259704589843	755.9014282226561	1094.161865234375	361.0413818359374	547.3389282226562	796.7289428710938	205.5473480224609	803.2073974609375	833.3524169921875	198.3097229003906	672.36279296875	853.59423828125	355.8819274902343	865.6181640625	607.1480102539062	309.3736267089843	863.5918579101562	546.6644287109375	336.7728881835937	875.5601806640625	545.6165161132812	288.2746276855468	881.7545166015625	442.1730041503907	298.8741455078124	915.4209594726562	350.4848632812501	350.9361267089843	921.8805541992188	287.5548400878907	376.8255310058593	937.8707275390625	292.8187561035157	326.5038452148437	962.16455078125	87.26493835449224	322.0036315917968	922.9017944335938	45.92866897583013	358.7540283203124	978.9630126953125	47.57013702392584	167.4500122070312	1003.170593261719	34.40246582031256	257.6541442871093	482.7031860351562	615.2269897460938	253.6383666992187	473.3337707519531	559.3311157226562	289.3343505859374	482.4125366210937	550.7376708984375	238.7488708496093	453.091552734375	421.8402099609375	304.1109619140625	401.0651550292969	310.1746215820312	318.3621826171875	386.0999145507812	255.3236083984375	353.3213195800781	381.4454956054688	248.7128295898438	302.4550170898438	348.6897583007812	71.27228546142581	335.0198059082031	387.0685424804688	43.37406158447268	357.7185668945312	297.9303283691406	42.72301864624026	178.6703491210937	286.2119140625	29.78834342956545	273.3174743652344	888.2994995117188	74.95869445800787	278.1922302246093	407.2918090820312	67.43711090087893	271.8626403808594	792.9932250976562	404.8193664550782	267.3263549804687	542.504638671875	382.8691101074219	260.8402404785156	
18	0.08500000000000001	655.1053466796874	1226.61572265625	349.6507873535156	661.8308715820311	1004.449035644531	344.9673461914062	669.6959838867186	1199.914794921875	223.0758056640625	670.3942260742186	1067.58544921875	155.0017700195312	755.9140014648436	1094.226928710938	361.0298156738281	547.3375244140625	796.7421264648438	205.6246185302734	803.207275390625	833.3478393554688	198.3786315917968	672.3621215820312	853.6038208007812	355.9529418945312	865.603271484375	607.1505126953125	309.4313049316406	863.5807495117188	546.6716918945312	336.7979431152343	875.5597534179688	545.619873046875	288.3278808593749	881.7484130859375	442.1766662597657	298.9227600097656	915.4331665039062	350.4783020019532	350.9909057617187	921.8931884765625	287.5377197265626	376.8465270996093	937.8695678710938	292.8255310058594	326.5285644531249	962.1715087890625	87.26614379882818	322.0028076171874	922.9052734375	45.92830276489263	358.7580871582031	978.962158203125	47.57364273071295	167.4508666992187	1003.166320800781	34.40284347534186	257.6632690429687	482.6927185058593	615.2368774414062	253.706558227539	473.3212585449218	559.3352661132812	289.3971252441406	482.4147033691406	550.7421875	238.8171997070312	453.0819091796875	421.8423156738281	304.1478881835938	401.0570373535156	310.1735229492188	318.3869323730469	386.0984191894531	255.327377319336	353.3330993652344	381.4403991699219	248.7138824462891	302.4731140136719	348.6915893554688	71.26979827880862	335.0220642089844	387.0712585449219	43.37025070190432	357.7160339355469	297.9292297363281	42.72202301025393	178.6718292236328	286.2120971679688	29.78599929809572	273.3190002441406	888.304443359375	74.96108245849615	278.1985473632812	407.2908935546875	67.4405212402344	271.8652954101562	792.9852905273438	404.8190307617188	267.3728942871093	542.4955444335938	382.8795471191407	260.8800964355468	
19	0.09	655.0624999999999	1226.661499023438	349.6226501464843	661.8562622070311	1004.460876464844	344.9801635742187	669.6624755859374	1199.925415039062	223.0613555908203	670.3851928710936	1067.595581054688	154.9772338867187	755.9264526367186	1094.290893554688	361.0175170898437	547.3358154296875	796.7553100585938	205.7007293701172	803.206787109375	833.34326171875	198.4452667236328	672.3618774414062	853.61328125	356.0222167968749	865.58837890625	607.1530151367188	309.4870300292968	863.56884765625	546.6788940429688	336.8234558105468	875.5592041015625	545.6231689453125	288.3793029785156	881.7421875	442.1803588867188	298.9700012207031	915.445068359375	350.4719238281251	351.0442199707031	921.9055786132812	287.5211486816407	376.8667602539062	937.868408203125	292.8322753906251	326.5524597167968	962.17822265625	87.26736450195318	322.0019836425781	922.90869140625	45.92794418334967	358.7620544433593	978.9612426757812	47.57703399658209	167.4517211914062	1003.162170410156	34.40322113037116	257.6721191406249	482.6822204589843	615.2466430664062	253.773696899414	473.3088378906249	559.3394165039062	289.4588623046874	482.4162902832031	550.7467651367188	238.8843383789062	453.0723571777344	421.8444519042969	304.1840515136719	401.0490112304688	310.1724853515625	318.4111633300781	386.0969848632812	255.3311004638672	353.3445434570312	381.4353942871094	248.7149200439453	302.4908752441406	348.6935119628906	71.26737213134768	335.0242614746094	387.073974609375	43.36653900146487	357.7135314941406	297.9281005859375	42.72103118896487	178.6732788085937	286.2123107910156	29.78370857238771	273.3205261230469	888.3092041015625	74.96339416503912	278.2047424316406	407.2900390625	67.44385528564456	271.8678283691406	792.9773559570312	404.8186950683594	267.4183044433593	542.4864501953125	382.8898925781251	260.9190673828124	
20	0.095	655.0203857421874	1226.706909179688	349.5945129394531	661.8817138671874	1004.47265625	344.9924316406249	669.6292114257811	1199.935913085938	223.0461883544922	670.3754272460936	1067.605834960938	154.9523773193359	755.9387817382811	1094.353759765625	361.0045166015624	547.3336791992188	796.7684326171875	205.775650024414	803.205810546875	833.3387451171875	198.5096130371093	672.362060546875	853.62255859375	356.0898132324218	865.5735473632812	607.1557006835938	309.5408020019531	863.55615234375	546.68603515625	336.8493957519531	875.5585327148438	545.62646484375	288.4289550781249	881.7360229492188	442.1840820312501	299.0158691406249	915.4567260742188	350.4657897949219	351.0960693359374	921.917724609375	287.5051879882813	376.8861999511718	937.8672485351562	292.8389892578126	326.5755615234374	962.1847534179688	87.26860809326178	322.0011291503906	922.9119873046875	45.92759323120123	358.7659606933593	978.9603271484375	47.58031082153326	167.4525756835937	1003.158142089844	34.40360641479499	257.6806640624999	482.6716613769531	615.25634765625	253.8397827148437	473.2964782714843	559.3435668945312	289.5195922851562	482.4172973632812	550.7515258789062	238.9502868652343	453.0628662109375	421.8465576171875	304.2194519042969	401.0410766601562	310.1714477539062	318.4348754882812	386.0955810546875	255.3347778320313	353.355712890625	381.430419921875	248.7159423828125	302.5082397460938	348.6954956054688	71.26499938964847	335.0263977050781	387.0766906738281	43.36292266845705	357.7110595703125	297.927001953125	42.7200508117676	178.6746826171875	286.2125549316406	29.78147315979006	273.3219909667969	888.3138427734375	74.96564483642584	278.2108459472656	407.2892456054688	67.44712066650393	271.8703002929688	792.9694213867188	404.8182983398438	267.4626159667968	542.4774169921875	382.9001159667969	260.9571533203124	
21	0.1	654.9789428710936	1226.751708984375	349.5663757324218	661.9072265624999	1004.484252929688	345.0042114257812	669.5960693359374	1199.9462890625	223.0303039550781	670.3648681640624	1067.616088867188	154.9272155761718	755.9510498046874	1094.41552734375	360.9907836914062	547.3311767578125	796.781494140625	205.8494110107422	803.2044677734375	833.334228515625	198.5716857910156	672.3626098632812	853.6316528320312	356.1556701660156	865.5586547851562	607.158447265625	309.5926208496093	863.5426025390625	546.6931762695312	336.8757324218749	875.5576782226562	545.6297607421875	288.4768066406249	881.7297973632812	442.1878051757813	299.0603332519531	915.4681396484375	350.4598999023438	351.1464538574218	921.9296875	287.4897766113282	376.9048767089843	937.8660888671875	292.8456726074219	326.5979003906249	962.191162109375	87.26987457275396	322.0002746582031	922.9152221679688	45.92724990844732	358.7697448730468	978.9594116210938	47.58347702026373	167.4534149169921	1003.154235839844	34.40399169921881	257.6889038085937	482.6610107421874	615.2660522460938	253.9048156738281	473.2842102050781	559.3477172851562	289.5793151855468	482.4177551269531	550.7564697265625	239.0150451660156	453.053466796875	421.8486938476562	304.2541198730469	401.0332641601562	310.1704711914062	318.4580688476562	386.09423828125	255.3384094238282	353.3665771484375	381.4255065917969	248.7169494628907	302.5252685546875	348.6976013183594	71.26268005371097	335.0284729003906	387.0793762207031	43.35940551757815	357.7085876464844	297.9258728027344	42.71907806396487	178.6760559082031	286.2127990722656	29.77929306030275	273.3234252929688	888.3182983398438	74.96782684326178	278.2168273925781	407.2884826660156	67.450309753418	271.8726806640625	792.96142578125	404.8179016113282	267.5058288574218	542.4684448242188	382.9101867675782	260.9943542480468	
